
              <svg id="sw-js-blob-svg" viewBox="0 0 100 100" xmlns="http://www.w3.org/2000/svg" version="1.1">
                    <defs> 
                        <linearGradient id="sw-gradient" x1="0" x2="1" y1="1" y2="0">
                            <stop id="stop1" stop-color="rgba(4.571, 0, 137.817, 1)" offset="0%"></stop>
                            <stop id="stop2" stop-color="rgba(31, 135.488, 251, 1)" offset="100%"></stop>
                        </linearGradient>
                    </defs>
                <path fill="url(#sw-gradient)" d="M22.8,-31.9C28.6,-31.8,31.5,-23.8,31.1,-16.6C30.7,-9.4,27,-3,24.8,2.7C22.7,8.5,22.1,13.6,19.6,17.5C17,21.3,12.4,24,7.4,25.7C2.4,27.5,-3.1,28.3,-7.6,26.7C-12,25,-15.5,20.7,-19.1,16.5C-22.6,12.4,-26.3,8.4,-29.3,2.8C-32.3,-2.7,-34.5,-9.7,-31.8,-14C-29,-18.3,-21.4,-19.8,-15.2,-19.6C-9.1,-19.5,-4.6,-17.7,2,-20.8C8.5,-23.9,17.1,-31.9,22.8,-31.9Z" width="100%" height="100%" transform="translate(50 50)" stroke-width="0" style="transition: 0.3s;"></path>
              </svg>